<svg xmlns="http://www.w3.org/2000/svg" width="24" height="24" viewBox="0 0 24 24">
  <path fill="currentColor" d="M12 4a1 1 0 0 1 1-1h0a1 1 0 1 1-2 0h0a1 1 0 0 1 1 1zM12 20a1 1 0 0 1 1 1h0a1 1 0 1 1-2 0h0a1 1 0 0 1 1-1zm8-8a1 1 0 0 1 1 1h0a1 1 0 1 1-2 0h0a1 1 0 0 1 1-1zM4 12a1 1 0 0 1 1 1h0a1 1 0 1 1-2 0h0a1 1 0 0 1 1-1zm12.95 5.05a1 1 0 0 1 1.41 1.41h0a1 1 0 1 1-1.41-1.41zm-9.9 0a1 1 0 0 1 1.41 1.41h0a1 1 0 1 1-1.41-1.41zM16.95 7.05a1 1 0 0 1 1.41 1.41h0a1 1 0 1 1-1.41-1.41zM7.05 7.05a1 1 0 0 1 1.41 1.41h0a1 1 0 1 1-1.41-1.41zM12 7a5 5 0 1 1 0 10a5 5 0 0 1 0-10z"></path>
</svg>
